solid OpenSCAD_Model
  facet normal 0.99863 0.0523365 0
    outer loop
      vertex 7.5 0 30
      vertex 7.45891 0.783963 0
      vertex 7.45891 0.783963 30
    endloop
  endfacet
  facet normal 0.99863 0.0523365 0
    outer loop
      vertex 7.45891 0.783963 0
      vertex 7.5 0 30
      vertex 7.5 0 0
    endloop
  endfacet
  facet normal -0.99863 0.0523365 0
    outer loop
      vertex -7.5 0 0
      vertex -7.45891 0.783963 30
      vertex -7.45891 0.783963 0
    endloop
  endfacet
  facet normal -0.99863 0.0523365 0
    outer loop
      vertex -7.45891 0.783963 30
      vertex -7.5 0 0
      vertex -7.5 0 30
    endloop
  endfacet
  facet normal 0.0523365 0.99863 -0
    outer loop
      vertex 0.783963 7.45891 0
      vertex 0 7.5 30
      vertex 0.783963 7.45891 30
    endloop
  endfacet
  facet normal 0.0523365 0.99863 0
    outer loop
      vertex 0 7.5 30
      vertex 0.783963 7.45891 0
      vertex 0 7.5 0
    endloop
  endfacet
  facet normal -0.0523365 -0.99863 0
    outer loop
      vertex -0.783963 -7.45891 0
      vertex 0 -7.5 30
      vertex -0.783963 -7.45891 30
    endloop
  endfacet
  facet normal -0.0523365 -0.99863 -0
    outer loop
      vertex 0 -7.5 30
      vertex -0.783963 -7.45891 0
      vertex 0 -7.5 0
    endloop
  endfacet
  facet normal 0.707107 0.707107 0
    outer loop
      vertex 5.57359 5.01848 30
      vertex 5.01848 5.57359 0
      vertex 5.01848 5.57359 30
    endloop
  endfacet
  facet normal 0.707107 0.707107 0
    outer loop
      vertex 5.01848 5.57359 0
      vertex 5.57359 5.01848 30
      vertex 5.57359 5.01848 0
    endloop
  endfacet
  facet normal -0.62932 0.777146 0
    outer loop
      vertex -4.40839 6.06763 0
      vertex -5.01848 5.57359 30
      vertex -4.40839 6.06763 30
    endloop
  endfacet
  facet normal -0.62932 0.777146 0
    outer loop
      vertex -5.01848 5.57359 30
      vertex -4.40839 6.06763 0
      vertex -5.01848 5.57359 0
    endloop
  endfacet
  facet normal -0.358368 0.93358 0
    outer loop
      vertex -2.31763 7.13292 0
      vertex -3.05052 6.85159 30
      vertex -2.31763 7.13292 30
    endloop
  endfacet
  facet normal -0.358368 0.93358 0
    outer loop
      vertex -3.05052 6.85159 30
      vertex -2.31763 7.13292 0
      vertex -3.05052 6.85159 0
    endloop
  endfacet
  facet normal -0.93358 -0.358368 0
    outer loop
      vertex -6.85159 -3.05052 0
      vertex -7.13292 -2.31763 30
      vertex -7.13292 -2.31763 0
    endloop
  endfacet
  facet normal -0.93358 -0.358368 0
    outer loop
      vertex -7.13292 -2.31763 30
      vertex -6.85159 -3.05052 0
      vertex -6.85159 -3.05052 30
    endloop
  endfacet
  facet normal 0.93358 0.358368 0
    outer loop
      vertex 7.13292 2.31763 30
      vertex 6.85159 3.05052 0
      vertex 6.85159 3.05052 30
    endloop
  endfacet
  facet normal 0.93358 0.358368 0
    outer loop
      vertex 6.85159 3.05052 0
      vertex 7.13292 2.31763 30
      vertex 7.13292 2.31763 0
    endloop
  endfacet
  facet normal 0.987688 0.156435 0
    outer loop
      vertex 7.45891 0.783963 30
      vertex 7.33611 1.55934 0
      vertex 7.33611 1.55934 30
    endloop
  endfacet
  facet normal 0.987688 0.156435 0
    outer loop
      vertex 7.33611 1.55934 0
      vertex 7.45891 0.783963 30
      vertex 7.45891 0.783963 0
    endloop
  endfacet
  facet normal 0.453991 0.891007 -0
    outer loop
      vertex 3.75 6.49519 0
      vertex 3.05052 6.85159 30
      vertex 3.75 6.49519 30
    endloop
  endfacet
  facet normal 0.453991 0.891007 0
    outer loop
      vertex 3.05052 6.85159 30
      vertex 3.75 6.49519 0
      vertex 3.05052 6.85159 0
    endloop
  endfacet
  facet normal 0.62932 0.777146 -0
    outer loop
      vertex 5.01848 5.57359 0
      vertex 4.40839 6.06763 30
      vertex 5.01848 5.57359 30
    endloop
  endfacet
  facet normal 0.62932 0.777146 0
    outer loop
      vertex 4.40839 6.06763 30
      vertex 5.01848 5.57359 0
      vertex 4.40839 6.06763 0
    endloop
  endfacet
  facet normal -0.891006 0.453991 0
    outer loop
      vertex -6.85159 3.05052 0
      vertex -6.49519 3.75 30
      vertex -6.49519 3.75 0
    endloop
  endfacet
  facet normal -0.891006 0.453991 0
    outer loop
      vertex -6.49519 3.75 30
      vertex -6.85159 3.05052 0
      vertex -6.85159 3.05052 30
    endloop
  endfacet
  facet normal -0.156435 0.987688 0
    outer loop
      vertex -0.783963 7.45891 0
      vertex -1.55934 7.33611 30
      vertex -0.783963 7.45891 30
    endloop
  endfacet
  facet normal -0.156435 0.987688 0
    outer loop
      vertex -1.55934 7.33611 30
      vertex -0.783963 7.45891 0
      vertex -1.55934 7.33611 0
    endloop
  endfacet
  facet normal 0.93358 -0.358368 0
    outer loop
      vertex 6.85159 -3.05052 30
      vertex 7.13292 -2.31763 0
      vertex 7.13292 -2.31763 30
    endloop
  endfacet
  facet normal 0.93358 -0.358368 0
    outer loop
      vertex 7.13292 -2.31763 0
      vertex 6.85159 -3.05052 30
      vertex 6.85159 -3.05052 0
    endloop
  endfacet
  facet normal 0 0 -1
    outer loop
      vertex 6.5 0 0
      vertex 7.5 0 0
      vertex 7.45891 -0.783963 0
    endloop
  endfacet
  facet normal 0 0 -1
    outer loop
      vertex 6.46439 -0.679435 0
      vertex 7.45891 -0.783963 0
      vertex 7.33611 -1.55934 0
    endloop
  endfacet
  facet normal 0 0 -1
    outer loop
      vertex 7.5 0 0
      vertex 6.5 0 0
      vertex 7.45891 0.783963 0
    endloop
  endfacet
  facet normal 0 0 -1
    outer loop
      vertex 6.35796 -1.35143 0
      vertex 7.33611 -1.55934 0
      vertex 7.13292 -2.31763 0
    endloop
  endfacet
  facet normal 0 0 -1
    outer loop
      vertex 6.46439 0.679435 0
      vertex 7.45891 0.783963 0
      vertex 6.5 0 0
    endloop
  endfacet
  facet normal 0 0 -1
    outer loop
      vertex 6.18187 -2.00861 0
      vertex 7.13292 -2.31763 0
      vertex 6.85159 -3.05052 0
    endloop
  endfacet
  facet normal -0 0 -1
    outer loop
      vertex 7.45891 0.783963 0
      vertex 6.46439 0.679435 0
      vertex 7.33611 1.55934 0
    endloop
  endfacet
  facet normal 0 0 -1
    outer loop
      vertex 6.35796 1.35143 0
      vertex 7.33611 1.55934 0
      vertex 6.46439 0.679435 0
    endloop
  endfacet
  facet normal 0 0 -1
    outer loop
      vertex 5.93804 -2.64379 0
      vertex 6.85159 -3.05052 0
      vertex 6.49519 -3.75 0
    endloop
  endfacet
  facet normal 0 0 -1
    outer loop
      vertex 7.45891 -0.783963 0
      vertex 6.46439 -0.679435 0
      vertex 6.5 0 0
    endloop
  endfacet
  facet normal 0 0 -1
    outer loop
      vertex 7.33611 -1.55934 0
      vertex 6.35796 -1.35143 0
      vertex 6.46439 -0.679435 0
    endloop
  endfacet
  facet normal 0 0 -1
    outer loop
      vertex 7.13292 -2.31763 0
      vertex 6.18187 -2.00861 0
      vertex 6.35796 -1.35143 0
    endloop
  endfacet
  facet normal 0 0 -1
    outer loop
      vertex 5.62916 -3.25 0
      vertex 6.49519 -3.75 0
      vertex 6.06763 -4.40839 0
    endloop
  endfacet
  facet normal 0 0 -1
    outer loop
      vertex 6.85159 -3.05052 0
      vertex 5.93804 -2.64379 0
      vertex 6.18187 -2.00861 0
    endloop
  endfacet
  facet normal 0 0 -1
    outer loop
      vertex 6.49519 -3.75 0
      vertex 5.62916 -3.25 0
      vertex 5.93804 -2.64379 0
    endloop
  endfacet
  facet normal 0 0 -1
    outer loop
      vertex 5.25861 -3.8206 0
      vertex 6.06763 -4.40839 0
      vertex 5.57359 -5.01848 0
    endloop
  endfacet
  facet normal 0 0 -1
    outer loop
      vertex 6.06763 -4.40839 0
      vertex 5.25861 -3.8206 0
      vertex 5.62916 -3.25 0
    endloop
  endfacet
  facet normal 0 0 -1
    outer loop
      vertex 4.83044 -4.34935 0
      vertex 5.57359 -5.01848 0
      vertex 5.01848 -5.57359 0
    endloop
  endfacet
  facet normal 0 0 -1
    outer loop
      vertex 5.57359 -5.01848 0
      vertex 4.83044 -4.34935 0
      vertex 5.25861 -3.8206 0
    endloop
  endfacet
  facet normal 0 0 -1
    outer loop
      vertex 4.34935 -4.83044 0
      vertex 5.01848 -5.57359 0
      vertex 4.40839 -6.06763 0
    endloop
  endfacet
  facet normal 0 0 -1
    outer loop
      vertex 5.01848 -5.57359 0
      vertex 4.34935 -4.83044 0
      vertex 4.83044 -4.34935 0
    endloop
  endfacet
  facet normal 0 0 -1
    outer loop
      vertex 4.40839 -6.06763 0
      vertex 3.8206 -5.25861 0
      vertex 4.34935 -4.83044 0
    endloop
  endfacet
  facet normal 0 0 -1
    outer loop
      vertex 3.75 -6.49519 0
      vertex 3.8206 -5.25861 0
      vertex 4.40839 -6.06763 0
    endloop
  endfacet
  facet normal 0 0 -1
    outer loop
      vertex 3.75 -6.49519 0
      vertex 3.25 -5.62916 0
      vertex 3.8206 -5.25861 0
    endloop
  endfacet
  facet normal 0 0 -1
    outer loop
      vertex 3.05052 -6.85159 0
      vertex 3.25 -5.62916 0
      vertex 3.75 -6.49519 0
    endloop
  endfacet
  facet normal 0 0 -1
    outer loop
      vertex 3.05052 -6.85159 0
      vertex 2.64379 -5.93804 0
      vertex 3.25 -5.62916 0
    endloop
  endfacet
  facet normal 0 0 -1
    outer loop
      vertex 2.31763 -7.13292 0
      vertex 2.64379 -5.93804 0
      vertex 3.05052 -6.85159 0
    endloop
  endfacet
  facet normal 0 0 -1
    outer loop
      vertex 2.31763 -7.13292 0
      vertex 2.00861 -6.18187 0
      vertex 2.64379 -5.93804 0
    endloop
  endfacet
  facet normal 0 0 -1
    outer loop
      vertex 1.55934 -7.33611 0
      vertex 2.00861 -6.18187 0
      vertex 2.31763 -7.13292 0
    endloop
  endfacet
  facet normal 0 0 -1
    outer loop
      vertex 1.55934 -7.33611 0
      vertex 1.35143 -6.35796 0
      vertex 2.00861 -6.18187 0
    endloop
  endfacet
  facet normal 0 0 -1
    outer loop
      vertex 0.783963 -7.45891 0
      vertex 1.35143 -6.35796 0
      vertex 1.55934 -7.33611 0
    endloop
  endfacet
  facet normal 0 0 -1
    outer loop
      vertex 0.783963 -7.45891 0
      vertex 0.679435 -6.46439 0
      vertex 1.35143 -6.35796 0
    endloop
  endfacet
  facet normal 0 0 -1
    outer loop
      vertex 0 -7.5 0
      vertex 0.679435 -6.46439 0
      vertex 0.783963 -7.45891 0
    endloop
  endfacet
  facet normal 0 0 -1
    outer loop
      vertex 0 -7.5 0
      vertex 0 -6.5 0
      vertex 0.679435 -6.46439 0
    endloop
  endfacet
  facet normal 0 0 -1
    outer loop
      vertex 0 -7.5 0
      vertex -0.679435 -6.46439 0
      vertex 0 -6.5 0
    endloop
  endfacet
  facet normal 0 0 -1
    outer loop
      vertex -0.783963 -7.45891 0
      vertex -0.679435 -6.46439 0
      vertex 0 -7.5 0
    endloop
  endfacet
  facet normal 0 0 -1
    outer loop
      vertex -0.783963 -7.45891 0
      vertex -1.35143 -6.35796 0
      vertex -0.679435 -6.46439 0
    endloop
  endfacet
  facet normal 0 0 -1
    outer loop
      vertex -1.55934 -7.33611 0
      vertex -1.35143 -6.35796 0
      vertex -0.783963 -7.45891 0
    endloop
  endfacet
  facet normal 0 0 -1
    outer loop
      vertex -1.55934 -7.33611 0
      vertex -2.00861 -6.18187 0
      vertex -1.35143 -6.35796 0
    endloop
  endfacet
  facet normal 0 0 -1
    outer loop
      vertex -2.31763 -7.13292 0
      vertex -2.00861 -6.18187 0
      vertex -1.55934 -7.33611 0
    endloop
  endfacet
  facet normal 0 0 -1
    outer loop
      vertex -2.31763 -7.13292 0
      vertex -2.64379 -5.93804 0
      vertex -2.00861 -6.18187 0
    endloop
  endfacet
  facet normal 0 0 -1
    outer loop
      vertex -3.05052 -6.85159 0
      vertex -2.64379 -5.93804 0
      vertex -2.31763 -7.13292 0
    endloop
  endfacet
  facet normal 0 0 -1
    outer loop
      vertex -3.05052 -6.85159 0
      vertex -3.25 -5.62916 0
      vertex -2.64379 -5.93804 0
    endloop
  endfacet
  facet normal 0 0 -1
    outer loop
      vertex -3.75 -6.49519 0
      vertex -3.25 -5.62916 0
      vertex -3.05052 -6.85159 0
    endloop
  endfacet
  facet normal 0 0 -1
    outer loop
      vertex -3.75 -6.49519 0
      vertex -3.8206 -5.25861 0
      vertex -3.25 -5.62916 0
    endloop
  endfacet
  facet normal 0 0 -1
    outer loop
      vertex -4.40839 -6.06763 0
      vertex -3.8206 -5.25861 0
      vertex -3.75 -6.49519 0
    endloop
  endfacet
  facet normal -0 0 -1
    outer loop
      vertex -3.8206 -5.25861 0
      vertex -4.40839 -6.06763 0
      vertex -4.34935 -4.83044 0
    endloop
  endfacet
  facet normal 0 0 -1
    outer loop
      vertex -5.01848 -5.57359 0
      vertex -4.34935 -4.83044 0
      vertex -4.40839 -6.06763 0
    endloop
  endfacet
  facet normal -0 0 -1
    outer loop
      vertex -4.34935 -4.83044 0
      vertex -5.01848 -5.57359 0
      vertex -4.83044 -4.34935 0
    endloop
  endfacet
  facet normal 0 0 -1
    outer loop
      vertex -5.57359 -5.01848 0
      vertex -4.83044 -4.34935 0
      vertex -5.01848 -5.57359 0
    endloop
  endfacet
  facet normal -0 0 -1
    outer loop
      vertex -4.83044 -4.34935 0
      vertex -5.57359 -5.01848 0
      vertex -5.25861 -3.8206 0
    endloop
  endfacet
  facet normal 0 0 -1
    outer loop
      vertex -6.06763 -4.40839 0
      vertex -5.25861 -3.8206 0
      vertex -5.57359 -5.01848 0
    endloop
  endfacet
  facet normal -0 0 -1
    outer loop
      vertex -5.25861 -3.8206 0
      vertex -6.06763 -4.40839 0
      vertex -5.62916 -3.25 0
    endloop
  endfacet
  facet normal 0 0 -1
    outer loop
      vertex -6.49519 -3.75 0
      vertex -5.62916 -3.25 0
      vertex -6.06763 -4.40839 0
    endloop
  endfacet
  facet normal -0 0 -1
    outer loop
      vertex -5.62916 -3.25 0
      vertex -6.49519 -3.75 0
      vertex -5.93804 -2.64379 0
    endloop
  endfacet
  facet normal 0 0 -1
    outer loop
      vertex -6.85159 -3.05052 0
      vertex -5.93804 -2.64379 0
      vertex -6.49519 -3.75 0
    endloop
  endfacet
  facet normal -0 0 -1
    outer loop
      vertex -5.93804 -2.64379 0
      vertex -6.85159 -3.05052 0
      vertex -6.18187 -2.00861 0
    endloop
  endfacet
  facet normal 0 0 -1
    outer loop
      vertex -7.13292 -2.31763 0
      vertex -6.18187 -2.00861 0
      vertex -6.85159 -3.05052 0
    endloop
  endfacet
  facet normal -0 0 -1
    outer loop
      vertex -6.18187 -2.00861 0
      vertex -7.13292 -2.31763 0
      vertex -6.35796 -1.35143 0
    endloop
  endfacet
  facet normal 0 0 -1
    outer loop
      vertex -7.33611 -1.55934 0
      vertex -6.35796 -1.35143 0
      vertex -7.13292 -2.31763 0
    endloop
  endfacet
  facet normal -0 0 -1
    outer loop
      vertex 7.33611 1.55934 0
      vertex 6.35796 1.35143 0
      vertex 7.13292 2.31763 0
    endloop
  endfacet
  facet normal 0 0 -1
    outer loop
      vertex 6.18187 2.00861 0
      vertex 7.13292 2.31763 0
      vertex 6.35796 1.35143 0
    endloop
  endfacet
  facet normal -0 0 -1
    outer loop
      vertex 7.13292 2.31763 0
      vertex 6.18187 2.00861 0
      vertex 6.85159 3.05052 0
    endloop
  endfacet
  facet normal 0 0 -1
    outer loop
      vertex 5.93804 2.64379 0
      vertex 6.85159 3.05052 0
      vertex 6.18187 2.00861 0
    endloop
  endfacet
  facet normal -0 0 -1
    outer loop
      vertex 6.85159 3.05052 0
      vertex 5.93804 2.64379 0
      vertex 6.49519 3.75 0
    endloop
  endfacet
  facet normal 0 0 -1
    outer loop
      vertex 5.62916 3.25 0
      vertex 6.49519 3.75 0
      vertex 5.93804 2.64379 0
    endloop
  endfacet
  facet normal -0 0 -1
    outer loop
      vertex 6.49519 3.75 0
      vertex 5.62916 3.25 0
      vertex 6.06763 4.40839 0
    endloop
  endfacet
  facet normal 0 0 -1
    outer loop
      vertex 5.25861 3.8206 0
      vertex 6.06763 4.40839 0
      vertex 5.62916 3.25 0
    endloop
  endfacet
  facet normal -0 0 -1
    outer loop
      vertex 6.06763 4.40839 0
      vertex 5.25861 3.8206 0
      vertex 5.57359 5.01848 0
    endloop
  endfacet
  facet normal 0 0 -1
    outer loop
      vertex 4.83044 4.34935 0
      vertex 5.57359 5.01848 0
      vertex 5.25861 3.8206 0
    endloop
  endfacet
  facet normal -0 0 -1
    outer loop
      vertex 5.57359 5.01848 0
      vertex 4.83044 4.34935 0
      vertex 5.01848 5.57359 0
    endloop
  endfacet
  facet normal 0 0 -1
    outer loop
      vertex 4.34935 4.83044 0
      vertex 5.01848 5.57359 0
      vertex 4.83044 4.34935 0
    endloop
  endfacet
  facet normal -0 0 -1
    outer loop
      vertex 5.01848 5.57359 0
      vertex 4.34935 4.83044 0
      vertex 4.40839 6.06763 0
    endloop
  endfacet
  facet normal 0 0 -1
    outer loop
      vertex 3.8206 5.25861 0
      vertex 4.40839 6.06763 0
      vertex 4.34935 4.83044 0
    endloop
  endfacet
  facet normal 0 0 -1
    outer loop
      vertex 3.8206 5.25861 0
      vertex 3.75 6.49519 0
      vertex 4.40839 6.06763 0
    endloop
  endfacet
  facet normal 0 0 -1
    outer loop
      vertex 3.25 5.62916 0
      vertex 3.75 6.49519 0
      vertex 3.8206 5.25861 0
    endloop
  endfacet
  facet normal 0 0 -1
    outer loop
      vertex 3.25 5.62916 0
      vertex 3.05052 6.85159 0
      vertex 3.75 6.49519 0
    endloop
  endfacet
  facet normal 0 0 -1
    outer loop
      vertex 2.64379 5.93804 0
      vertex 3.05052 6.85159 0
      vertex 3.25 5.62916 0
    endloop
  endfacet
  facet normal 0 0 -1
    outer loop
      vertex 2.64379 5.93804 0
      vertex 2.31763 7.13292 0
      vertex 3.05052 6.85159 0
    endloop
  endfacet
  facet normal 0 0 -1
    outer loop
      vertex 2.00861 6.18187 0
      vertex 2.31763 7.13292 0
      vertex 2.64379 5.93804 0
    endloop
  endfacet
  facet normal 0 0 -1
    outer loop
      vertex 2.00861 6.18187 0
      vertex 1.55934 7.33611 0
      vertex 2.31763 7.13292 0
    endloop
  endfacet
  facet normal 0 0 -1
    outer loop
      vertex 1.35143 6.35796 0
      vertex 1.55934 7.33611 0
      vertex 2.00861 6.18187 0
    endloop
  endfacet
  facet normal 0 0 -1
    outer loop
      vertex 1.35143 6.35796 0
      vertex 0.783963 7.45891 0
      vertex 1.55934 7.33611 0
    endloop
  endfacet
  facet normal 0 0 -1
    outer loop
      vertex 0.679435 6.46439 0
      vertex 0.783963 7.45891 0
      vertex 1.35143 6.35796 0
    endloop
  endfacet
  facet normal 0 0 -1
    outer loop
      vertex 0 6.5 0
      vertex 0.783963 7.45891 0
      vertex 0.679435 6.46439 0
    endloop
  endfacet
  facet normal 0 0 -1
    outer loop
      vertex 0 6.5 0
      vertex 0 7.5 0
      vertex 0.783963 7.45891 0
    endloop
  endfacet
  facet normal 0 0 -1
    outer loop
      vertex -0.679435 6.46439 0
      vertex 0 7.5 0
      vertex 0 6.5 0
    endloop
  endfacet
  facet normal 0 0 -1
    outer loop
      vertex -0.679435 6.46439 0
      vertex -0.783963 7.45891 0
      vertex 0 7.5 0
    endloop
  endfacet
  facet normal 0 0 -1
    outer loop
      vertex -1.35143 6.35796 0
      vertex -0.783963 7.45891 0
      vertex -0.679435 6.46439 0
    endloop
  endfacet
  facet normal 0 0 -1
    outer loop
      vertex -1.35143 6.35796 0
      vertex -1.55934 7.33611 0
      vertex -0.783963 7.45891 0
    endloop
  endfacet
  facet normal 0 0 -1
    outer loop
      vertex -2.00861 6.18187 0
      vertex -1.55934 7.33611 0
      vertex -1.35143 6.35796 0
    endloop
  endfacet
  facet normal 0 0 -1
    outer loop
      vertex -2.00861 6.18187 0
      vertex -2.31763 7.13292 0
      vertex -1.55934 7.33611 0
    endloop
  endfacet
  facet normal 0 0 -1
    outer loop
      vertex -2.64379 5.93804 0
      vertex -2.31763 7.13292 0
      vertex -2.00861 6.18187 0
    endloop
  endfacet
  facet normal 0 0 -1
    outer loop
      vertex -2.64379 5.93804 0
      vertex -3.05052 6.85159 0
      vertex -2.31763 7.13292 0
    endloop
  endfacet
  facet normal 0 0 -1
    outer loop
      vertex -3.25 5.62916 0
      vertex -3.05052 6.85159 0
      vertex -2.64379 5.93804 0
    endloop
  endfacet
  facet normal 0 0 -1
    outer loop
      vertex -3.25 5.62916 0
      vertex -3.75 6.49519 0
      vertex -3.05052 6.85159 0
    endloop
  endfacet
  facet normal 0 0 -1
    outer loop
      vertex -3.8206 5.25861 0
      vertex -3.75 6.49519 0
      vertex -3.25 5.62916 0
    endloop
  endfacet
  facet normal 0 0 -1
    outer loop
      vertex -4.40839 6.06763 0
      vertex -3.8206 5.25861 0
      vertex -4.34935 4.83044 0
    endloop
  endfacet
  facet normal 0 0 -1
    outer loop
      vertex -3.8206 5.25861 0
      vertex -4.40839 6.06763 0
      vertex -3.75 6.49519 0
    endloop
  endfacet
  facet normal 0 0 -1
    outer loop
      vertex -5.01848 5.57359 0
      vertex -4.34935 4.83044 0
      vertex -4.83044 4.34935 0
    endloop
  endfacet
  facet normal 0 0 -1
    outer loop
      vertex -4.34935 4.83044 0
      vertex -5.01848 5.57359 0
      vertex -4.40839 6.06763 0
    endloop
  endfacet
  facet normal 0 0 -1
    outer loop
      vertex -5.57359 5.01848 0
      vertex -4.83044 4.34935 0
      vertex -5.25861 3.8206 0
    endloop
  endfacet
  facet normal 0 0 -1
    outer loop
      vertex -4.83044 4.34935 0
      vertex -5.57359 5.01848 0
      vertex -5.01848 5.57359 0
    endloop
  endfacet
  facet normal 0 0 -1
    outer loop
      vertex -6.06763 4.40839 0
      vertex -5.25861 3.8206 0
      vertex -5.62916 3.25 0
    endloop
  endfacet
  facet normal 0 0 -1
    outer loop
      vertex -6.49519 3.75 0
      vertex -5.62916 3.25 0
      vertex -5.93804 2.64379 0
    endloop
  endfacet
  facet normal 0 0 -1
    outer loop
      vertex -5.25861 3.8206 0
      vertex -6.06763 4.40839 0
      vertex -5.57359 5.01848 0
    endloop
  endfacet
  facet normal 0 0 -1
    outer loop
      vertex -6.85159 3.05052 0
      vertex -5.93804 2.64379 0
      vertex -6.18187 2.00861 0
    endloop
  endfacet
  facet normal 0 0 -1
    outer loop
      vertex -7.13292 2.31763 0
      vertex -6.18187 2.00861 0
      vertex -6.35796 1.35143 0
    endloop
  endfacet
  facet normal 0 0 -1
    outer loop
      vertex -7.33611 1.55934 0
      vertex -6.35796 1.35143 0
      vertex -6.46439 0.679435 0
    endloop
  endfacet
  facet normal 0 0 -1
    outer loop
      vertex -5.62916 3.25 0
      vertex -6.49519 3.75 0
      vertex -6.06763 4.40839 0
    endloop
  endfacet
  facet normal 0 0 -1
    outer loop
      vertex -7.45891 0.783963 0
      vertex -6.46439 0.679435 0
      vertex -6.5 0 0
    endloop
  endfacet
  facet normal -0 0 -1
    outer loop
      vertex -6.35796 -1.35143 0
      vertex -7.33611 -1.55934 0
      vertex -6.46439 -0.679435 0
    endloop
  endfacet
  facet normal 0 0 -1
    outer loop
      vertex -5.93804 2.64379 0
      vertex -6.85159 3.05052 0
      vertex -6.49519 3.75 0
    endloop
  endfacet
  facet normal 0 0 -1
    outer loop
      vertex -7.45891 -0.783963 0
      vertex -6.46439 -0.679435 0
      vertex -7.33611 -1.55934 0
    endloop
  endfacet
  facet normal 0 0 -1
    outer loop
      vertex -6.18187 2.00861 0
      vertex -7.13292 2.31763 0
      vertex -6.85159 3.05052 0
    endloop
  endfacet
  facet normal -0 0 -1
    outer loop
      vertex -6.46439 -0.679435 0
      vertex -7.45891 -0.783963 0
      vertex -6.5 0 0
    endloop
  endfacet
  facet normal 0 0 -1
    outer loop
      vertex -6.35796 1.35143 0
      vertex -7.33611 1.55934 0
      vertex -7.13292 2.31763 0
    endloop
  endfacet
  facet normal 0 0 -1
    outer loop
      vertex -7.5 0 0
      vertex -6.5 0 0
      vertex -7.45891 -0.783963 0
    endloop
  endfacet
  facet normal 0 0 -1
    outer loop
      vertex -6.46439 0.679435 0
      vertex -7.45891 0.783963 0
      vertex -7.33611 1.55934 0
    endloop
  endfacet
  facet normal 0 0 -1
    outer loop
      vertex -6.5 0 0
      vertex -7.5 0 0
      vertex -7.45891 0.783963 0
    endloop
  endfacet
  facet normal 0.965926 0.258819 0
    outer loop
      vertex 7.33611 1.55934 30
      vertex 7.13292 2.31763 0
      vertex 7.13292 2.31763 30
    endloop
  endfacet
  facet normal 0.965926 0.258819 0
    outer loop
      vertex 7.13292 2.31763 0
      vertex 7.33611 1.55934 30
      vertex 7.33611 1.55934 0
    endloop
  endfacet
  facet normal 0.838671 0.544638 0
    outer loop
      vertex 6.49519 3.75 30
      vertex 6.06763 4.40839 0
      vertex 6.06763 4.40839 30
    endloop
  endfacet
  facet normal 0.838671 0.544638 0
    outer loop
      vertex 6.06763 4.40839 0
      vertex 6.49519 3.75 30
      vertex 6.49519 3.75 0
    endloop
  endfacet
  facet normal 0.777146 0.62932 0
    outer loop
      vertex 6.06763 4.40839 30
      vertex 5.57359 5.01848 0
      vertex 5.57359 5.01848 30
    endloop
  endfacet
  facet normal 0.777146 0.62932 0
    outer loop
      vertex 5.57359 5.01848 0
      vertex 6.06763 4.40839 30
      vertex 6.06763 4.40839 0
    endloop
  endfacet
  facet normal 0.891006 0.453991 0
    outer loop
      vertex 6.85159 3.05052 30
      vertex 6.49519 3.75 0
      vertex 6.49519 3.75 30
    endloop
  endfacet
  facet normal 0.891006 0.453991 0
    outer loop
      vertex 6.49519 3.75 0
      vertex 6.85159 3.05052 30
      vertex 6.85159 3.05052 0
    endloop
  endfacet
  facet normal 0.258819 0.965926 -0
    outer loop
      vertex 2.31763 7.13292 0
      vertex 1.55934 7.33611 30
      vertex 2.31763 7.13292 30
    endloop
  endfacet
  facet normal 0.258819 0.965926 0
    outer loop
      vertex 1.55934 7.33611 30
      vertex 2.31763 7.13292 0
      vertex 1.55934 7.33611 0
    endloop
  endfacet
  facet normal 0.358368 0.93358 -0
    outer loop
      vertex 3.05052 6.85159 0
      vertex 2.31763 7.13292 30
      vertex 3.05052 6.85159 30
    endloop
  endfacet
  facet normal 0.358368 0.93358 0
    outer loop
      vertex 2.31763 7.13292 30
      vertex 3.05052 6.85159 0
      vertex 2.31763 7.13292 0
    endloop
  endfacet
  facet normal 0.156435 0.987688 -0
    outer loop
      vertex 1.55934 7.33611 0
      vertex 0.783963 7.45891 30
      vertex 1.55934 7.33611 30
    endloop
  endfacet
  facet normal 0.156435 0.987688 0
    outer loop
      vertex 0.783963 7.45891 30
      vertex 1.55934 7.33611 0
      vertex 0.783963 7.45891 0
    endloop
  endfacet
  facet normal 0.544639 0.838671 -0
    outer loop
      vertex 4.40839 6.06763 0
      vertex 3.75 6.49519 30
      vertex 4.40839 6.06763 30
    endloop
  endfacet
  facet normal 0.544639 0.838671 0
    outer loop
      vertex 3.75 6.49519 30
      vertex 4.40839 6.06763 0
      vertex 3.75 6.49519 0
    endloop
  endfacet
  facet normal -0.965926 0.258819 0
    outer loop
      vertex -7.33611 1.55934 0
      vertex -7.13292 2.31763 30
      vertex -7.13292 2.31763 0
    endloop
  endfacet
  facet normal -0.965926 0.258819 0
    outer loop
      vertex -7.13292 2.31763 30
      vertex -7.33611 1.55934 0
      vertex -7.33611 1.55934 30
    endloop
  endfacet
  facet normal -0.777146 0.62932 0
    outer loop
      vertex -6.06763 4.40839 0
      vertex -5.57359 5.01848 30
      vertex -5.57359 5.01848 0
    endloop
  endfacet
  facet normal -0.777146 0.62932 0
    outer loop
      vertex -5.57359 5.01848 30
      vertex -6.06763 4.40839 0
      vertex -6.06763 4.40839 30
    endloop
  endfacet
  facet normal -0.707107 0.707107 0
    outer loop
      vertex -5.57359 5.01848 0
      vertex -5.01848 5.57359 30
      vertex -5.01848 5.57359 0
    endloop
  endfacet
  facet normal -0.707107 0.707107 0
    outer loop
      vertex -5.01848 5.57359 30
      vertex -5.57359 5.01848 0
      vertex -5.57359 5.01848 30
    endloop
  endfacet
  facet normal -0.838671 0.544638 0
    outer loop
      vertex -6.49519 3.75 0
      vertex -6.06763 4.40839 30
      vertex -6.06763 4.40839 0
    endloop
  endfacet
  facet normal -0.838671 0.544638 0
    outer loop
      vertex -6.06763 4.40839 30
      vertex -6.49519 3.75 0
      vertex -6.49519 3.75 30
    endloop
  endfacet
  facet normal -0.93358 0.358368 0
    outer loop
      vertex -7.13292 2.31763 0
      vertex -6.85159 3.05052 30
      vertex -6.85159 3.05052 0
    endloop
  endfacet
  facet normal -0.93358 0.358368 0
    outer loop
      vertex -6.85159 3.05052 30
      vertex -7.13292 2.31763 0
      vertex -7.13292 2.31763 30
    endloop
  endfacet
  facet normal -0.987688 0.156435 0
    outer loop
      vertex -7.45891 0.783963 0
      vertex -7.33611 1.55934 30
      vertex -7.33611 1.55934 0
    endloop
  endfacet
  facet normal -0.987688 0.156435 0
    outer loop
      vertex -7.33611 1.55934 30
      vertex -7.45891 0.783963 0
      vertex -7.45891 0.783963 30
    endloop
  endfacet
  facet normal 0 0 1
    outer loop
      vertex 6.5 0 30
      vertex 7.5 0 30
      vertex 7.45891 0.783963 30
    endloop
  endfacet
  facet normal 0 0 1
    outer loop
      vertex 6.46439 0.679435 30
      vertex 7.45891 0.783963 30
      vertex 7.33611 1.55934 30
    endloop
  endfacet
  facet normal 0 0 1
    outer loop
      vertex 7.5 0 30
      vertex 6.5 0 30
      vertex 7.45891 -0.783963 30
    endloop
  endfacet
  facet normal 0 0 1
    outer loop
      vertex 6.35796 1.35143 30
      vertex 7.33611 1.55934 30
      vertex 7.13292 2.31763 30
    endloop
  endfacet
  facet normal -0 0 1
    outer loop
      vertex 6.46439 -0.679435 30
      vertex 7.45891 -0.783963 30
      vertex 6.5 0 30
    endloop
  endfacet
  facet normal 0 0 1
    outer loop
      vertex 6.18187 2.00861 30
      vertex 7.13292 2.31763 30
      vertex 6.85159 3.05052 30
    endloop
  endfacet
  facet normal 0 0 1
    outer loop
      vertex 7.45891 -0.783963 30
      vertex 6.46439 -0.679435 30
      vertex 7.33611 -1.55934 30
    endloop
  endfacet
  facet normal -0 0 1
    outer loop
      vertex 6.35796 -1.35143 30
      vertex 7.33611 -1.55934 30
      vertex 6.46439 -0.679435 30
    endloop
  endfacet
  facet normal 0 0 1
    outer loop
      vertex 5.93804 2.64379 30
      vertex 6.85159 3.05052 30
      vertex 6.49519 3.75 30
    endloop
  endfacet
  facet normal 0 0 1
    outer loop
      vertex 7.45891 0.783963 30
      vertex 6.46439 0.679435 30
      vertex 6.5 0 30
    endloop
  endfacet
  facet normal 0 0 1
    outer loop
      vertex 7.33611 1.55934 30
      vertex 6.35796 1.35143 30
      vertex 6.46439 0.679435 30
    endloop
  endfacet
  facet normal 0 0 1
    outer loop
      vertex 7.13292 2.31763 30
      vertex 6.18187 2.00861 30
      vertex 6.35796 1.35143 30
    endloop
  endfacet
  facet normal 0 0 1
    outer loop
      vertex 5.62916 3.25 30
      vertex 6.49519 3.75 30
      vertex 6.06763 4.40839 30
    endloop
  endfacet
  facet normal 0 0 1
    outer loop
      vertex 6.85159 3.05052 30
      vertex 5.93804 2.64379 30
      vertex 6.18187 2.00861 30
    endloop
  endfacet
  facet normal 0 0 1
    outer loop
      vertex 6.49519 3.75 30
      vertex 5.62916 3.25 30
      vertex 5.93804 2.64379 30
    endloop
  endfacet
  facet normal 0 0 1
    outer loop
      vertex 5.25861 3.8206 30
      vertex 6.06763 4.40839 30
      vertex 5.57359 5.01848 30
    endloop
  endfacet
  facet normal 0 0 1
    outer loop
      vertex 6.06763 4.40839 30
      vertex 5.25861 3.8206 30
      vertex 5.62916 3.25 30
    endloop
  endfacet
  facet normal 0 0 1
    outer loop
      vertex 4.83044 4.34935 30
      vertex 5.57359 5.01848 30
      vertex 5.01848 5.57359 30
    endloop
  endfacet
  facet normal 0 0 1
    outer loop
      vertex 5.57359 5.01848 30
      vertex 4.83044 4.34935 30
      vertex 5.25861 3.8206 30
    endloop
  endfacet
  facet normal 0 0 1
    outer loop
      vertex 4.34935 4.83044 30
      vertex 5.01848 5.57359 30
      vertex 4.40839 6.06763 30
    endloop
  endfacet
  facet normal 0 0 1
    outer loop
      vertex 5.01848 5.57359 30
      vertex 4.34935 4.83044 30
      vertex 4.83044 4.34935 30
    endloop
  endfacet
  facet normal 0 0 1
    outer loop
      vertex 4.40839 6.06763 30
      vertex 3.8206 5.25861 30
      vertex 4.34935 4.83044 30
    endloop
  endfacet
  facet normal 0 0 1
    outer loop
      vertex 3.75 6.49519 30
      vertex 3.8206 5.25861 30
      vertex 4.40839 6.06763 30
    endloop
  endfacet
  facet normal 0 0 1
    outer loop
      vertex 3.75 6.49519 30
      vertex 3.25 5.62916 30
      vertex 3.8206 5.25861 30
    endloop
  endfacet
  facet normal 0 0 1
    outer loop
      vertex 3.05052 6.85159 30
      vertex 3.25 5.62916 30
      vertex 3.75 6.49519 30
    endloop
  endfacet
  facet normal 0 0 1
    outer loop
      vertex 3.05052 6.85159 30
      vertex 2.64379 5.93804 30
      vertex 3.25 5.62916 30
    endloop
  endfacet
  facet normal 0 0 1
    outer loop
      vertex 2.31763 7.13292 30
      vertex 2.64379 5.93804 30
      vertex 3.05052 6.85159 30
    endloop
  endfacet
  facet normal 0 0 1
    outer loop
      vertex 2.31763 7.13292 30
      vertex 2.00861 6.18187 30
      vertex 2.64379 5.93804 30
    endloop
  endfacet
  facet normal 0 0 1
    outer loop
      vertex 1.55934 7.33611 30
      vertex 2.00861 6.18187 30
      vertex 2.31763 7.13292 30
    endloop
  endfacet
  facet normal 0 0 1
    outer loop
      vertex 1.55934 7.33611 30
      vertex 1.35143 6.35796 30
      vertex 2.00861 6.18187 30
    endloop
  endfacet
  facet normal 0 0 1
    outer loop
      vertex 0.783963 7.45891 30
      vertex 1.35143 6.35796 30
      vertex 1.55934 7.33611 30
    endloop
  endfacet
  facet normal 0 0 1
    outer loop
      vertex 0.783963 7.45891 30
      vertex 0.679435 6.46439 30
      vertex 1.35143 6.35796 30
    endloop
  endfacet
  facet normal 0 0 1
    outer loop
      vertex 0 7.5 30
      vertex 0.679435 6.46439 30
      vertex 0.783963 7.45891 30
    endloop
  endfacet
  facet normal 0 0 1
    outer loop
      vertex 0 7.5 30
      vertex 0 6.5 30
      vertex 0.679435 6.46439 30
    endloop
  endfacet
  facet normal 0 0 1
    outer loop
      vertex 0 7.5 30
      vertex -0.679435 6.46439 30
      vertex 0 6.5 30
    endloop
  endfacet
  facet normal -0 0 1
    outer loop
      vertex -0.783963 7.45891 30
      vertex -0.679435 6.46439 30
      vertex 0 7.5 30
    endloop
  endfacet
  facet normal 0 0 1
    outer loop
      vertex -0.783963 7.45891 30
      vertex -1.35143 6.35796 30
      vertex -0.679435 6.46439 30
    endloop
  endfacet
  facet normal -0 0 1
    outer loop
      vertex -1.55934 7.33611 30
      vertex -1.35143 6.35796 30
      vertex -0.783963 7.45891 30
    endloop
  endfacet
  facet normal 0 0 1
    outer loop
      vertex -1.55934 7.33611 30
      vertex -2.00861 6.18187 30
      vertex -1.35143 6.35796 30
    endloop
  endfacet
  facet normal -0 0 1
    outer loop
      vertex -2.31763 7.13292 30
      vertex -2.00861 6.18187 30
      vertex -1.55934 7.33611 30
    endloop
  endfacet
  facet normal 0 0 1
    outer loop
      vertex -2.31763 7.13292 30
      vertex -2.64379 5.93804 30
      vertex -2.00861 6.18187 30
    endloop
  endfacet
  facet normal -0 0 1
    outer loop
      vertex -3.05052 6.85159 30
      vertex -2.64379 5.93804 30
      vertex -2.31763 7.13292 30
    endloop
  endfacet
  facet normal 0 0 1
    outer loop
      vertex -3.05052 6.85159 30
      vertex -3.25 5.62916 30
      vertex -2.64379 5.93804 30
    endloop
  endfacet
  facet normal -0 0 1
    outer loop
      vertex -3.75 6.49519 30
      vertex -3.25 5.62916 30
      vertex -3.05052 6.85159 30
    endloop
  endfacet
  facet normal 0 0 1
    outer loop
      vertex -3.75 6.49519 30
      vertex -3.8206 5.25861 30
      vertex -3.25 5.62916 30
    endloop
  endfacet
  facet normal -0 0 1
    outer loop
      vertex -4.40839 6.06763 30
      vertex -3.8206 5.25861 30
      vertex -3.75 6.49519 30
    endloop
  endfacet
  facet normal 0 0 1
    outer loop
      vertex -3.8206 5.25861 30
      vertex -4.40839 6.06763 30
      vertex -4.34935 4.83044 30
    endloop
  endfacet
  facet normal -0 0 1
    outer loop
      vertex -5.01848 5.57359 30
      vertex -4.34935 4.83044 30
      vertex -4.40839 6.06763 30
    endloop
  endfacet
  facet normal 0 0 1
    outer loop
      vertex -4.34935 4.83044 30
      vertex -5.01848 5.57359 30
      vertex -4.83044 4.34935 30
    endloop
  endfacet
  facet normal -0 0 1
    outer loop
      vertex -5.57359 5.01848 30
      vertex -4.83044 4.34935 30
      vertex -5.01848 5.57359 30
    endloop
  endfacet
  facet normal 0 0 1
    outer loop
      vertex -4.83044 4.34935 30
      vertex -5.57359 5.01848 30
      vertex -5.25861 3.8206 30
    endloop
  endfacet
  facet normal -0 0 1
    outer loop
      vertex -6.06763 4.40839 30
      vertex -5.25861 3.8206 30
      vertex -5.57359 5.01848 30
    endloop
  endfacet
  facet normal 0 0 1
    outer loop
      vertex -5.25861 3.8206 30
      vertex -6.06763 4.40839 30
      vertex -5.62916 3.25 30
    endloop
  endfacet
  facet normal -0 0 1
    outer loop
      vertex -6.49519 3.75 30
      vertex -5.62916 3.25 30
      vertex -6.06763 4.40839 30
    endloop
  endfacet
  facet normal 0 0 1
    outer loop
      vertex -5.62916 3.25 30
      vertex -6.49519 3.75 30
      vertex -5.93804 2.64379 30
    endloop
  endfacet
  facet normal -0 0 1
    outer loop
      vertex -6.85159 3.05052 30
      vertex -5.93804 2.64379 30
      vertex -6.49519 3.75 30
    endloop
  endfacet
  facet normal 0 0 1
    outer loop
      vertex -5.93804 2.64379 30
      vertex -6.85159 3.05052 30
      vertex -6.18187 2.00861 30
    endloop
  endfacet
  facet normal -0 0 1
    outer loop
      vertex -7.13292 2.31763 30
      vertex -6.18187 2.00861 30
      vertex -6.85159 3.05052 30
    endloop
  endfacet
  facet normal 0 0 1
    outer loop
      vertex -6.18187 2.00861 30
      vertex -7.13292 2.31763 30
      vertex -6.35796 1.35143 30
    endloop
  endfacet
  facet normal -0 0 1
    outer loop
      vertex -7.33611 1.55934 30
      vertex -6.35796 1.35143 30
      vertex -7.13292 2.31763 30
    endloop
  endfacet
  facet normal 0 0 1
    outer loop
      vertex 7.33611 -1.55934 30
      vertex 6.35796 -1.35143 30
      vertex 7.13292 -2.31763 30
    endloop
  endfacet
  facet normal -0 0 1
    outer loop
      vertex 6.18187 -2.00861 30
      vertex 7.13292 -2.31763 30
      vertex 6.35796 -1.35143 30
    endloop
  endfacet
  facet normal 0 0 1
    outer loop
      vertex 7.13292 -2.31763 30
      vertex 6.18187 -2.00861 30
      vertex 6.85159 -3.05052 30
    endloop
  endfacet
  facet normal -0 0 1
    outer loop
      vertex 5.93804 -2.64379 30
      vertex 6.85159 -3.05052 30
      vertex 6.18187 -2.00861 30
    endloop
  endfacet
  facet normal 0 0 1
    outer loop
      vertex 6.85159 -3.05052 30
      vertex 5.93804 -2.64379 30
      vertex 6.49519 -3.75 30
    endloop
  endfacet
  facet normal -0 0 1
    outer loop
      vertex 5.62916 -3.25 30
      vertex 6.49519 -3.75 30
      vertex 5.93804 -2.64379 30
    endloop
  endfacet
  facet normal 0 0 1
    outer loop
      vertex 6.49519 -3.75 30
      vertex 5.62916 -3.25 30
      vertex 6.06763 -4.40839 30
    endloop
  endfacet
  facet normal -0 0 1
    outer loop
      vertex 5.25861 -3.8206 30
      vertex 6.06763 -4.40839 30
      vertex 5.62916 -3.25 30
    endloop
  endfacet
  facet normal 0 0 1
    outer loop
      vertex 6.06763 -4.40839 30
      vertex 5.25861 -3.8206 30
      vertex 5.57359 -5.01848 30
    endloop
  endfacet
  facet normal -0 0 1
    outer loop
      vertex 4.83044 -4.34935 30
      vertex 5.57359 -5.01848 30
      vertex 5.25861 -3.8206 30
    endloop
  endfacet
  facet normal 0 0 1
    outer loop
      vertex 5.57359 -5.01848 30
      vertex 4.83044 -4.34935 30
      vertex 5.01848 -5.57359 30
    endloop
  endfacet
  facet normal -0 0 1
    outer loop
      vertex 4.34935 -4.83044 30
      vertex 5.01848 -5.57359 30
      vertex 4.83044 -4.34935 30
    endloop
  endfacet
  facet normal 0 0 1
    outer loop
      vertex 5.01848 -5.57359 30
      vertex 4.34935 -4.83044 30
      vertex 4.40839 -6.06763 30
    endloop
  endfacet
  facet normal -0 0 1
    outer loop
      vertex 3.8206 -5.25861 30
      vertex 4.40839 -6.06763 30
      vertex 4.34935 -4.83044 30
    endloop
  endfacet
  facet normal 0 0 1
    outer loop
      vertex 3.8206 -5.25861 30
      vertex 3.75 -6.49519 30
      vertex 4.40839 -6.06763 30
    endloop
  endfacet
  facet normal -0 0 1
    outer loop
      vertex 3.25 -5.62916 30
      vertex 3.75 -6.49519 30
      vertex 3.8206 -5.25861 30
    endloop
  endfacet
  facet normal 0 0 1
    outer loop
      vertex 3.25 -5.62916 30
      vertex 3.05052 -6.85159 30
      vertex 3.75 -6.49519 30
    endloop
  endfacet
  facet normal -0 0 1
    outer loop
      vertex 2.64379 -5.93804 30
      vertex 3.05052 -6.85159 30
      vertex 3.25 -5.62916 30
    endloop
  endfacet
  facet normal 0 0 1
    outer loop
      vertex 2.64379 -5.93804 30
      vertex 2.31763 -7.13292 30
      vertex 3.05052 -6.85159 30
    endloop
  endfacet
  facet normal -0 0 1
    outer loop
      vertex 2.00861 -6.18187 30
      vertex 2.31763 -7.13292 30
      vertex 2.64379 -5.93804 30
    endloop
  endfacet
  facet normal 0 0 1
    outer loop
      vertex 2.00861 -6.18187 30
      vertex 1.55934 -7.33611 30
      vertex 2.31763 -7.13292 30
    endloop
  endfacet
  facet normal -0 0 1
    outer loop
      vertex 1.35143 -6.35796 30
      vertex 1.55934 -7.33611 30
      vertex 2.00861 -6.18187 30
    endloop
  endfacet
  facet normal 0 0 1
    outer loop
      vertex 1.35143 -6.35796 30
      vertex 0.783963 -7.45891 30
      vertex 1.55934 -7.33611 30
    endloop
  endfacet
  facet normal -0 0 1
    outer loop
      vertex 0.679435 -6.46439 30
      vertex 0.783963 -7.45891 30
      vertex 1.35143 -6.35796 30
    endloop
  endfacet
  facet normal -0 0 1
    outer loop
      vertex 0 -6.5 30
      vertex 0.783963 -7.45891 30
      vertex 0.679435 -6.46439 30
    endloop
  endfacet
  facet normal 0 0 1
    outer loop
      vertex 0 -6.5 30
      vertex 0 -7.5 30
      vertex 0.783963 -7.45891 30
    endloop
  endfacet
  facet normal 0 0 1
    outer loop
      vertex -0.679435 -6.46439 30
      vertex 0 -7.5 30
      vertex 0 -6.5 30
    endloop
  endfacet
  facet normal 0 0 1
    outer loop
      vertex -0.679435 -6.46439 30
      vertex -0.783963 -7.45891 30
      vertex 0 -7.5 30
    endloop
  endfacet
  facet normal 0 0 1
    outer loop
      vertex -1.35143 -6.35796 30
      vertex -0.783963 -7.45891 30
      vertex -0.679435 -6.46439 30
    endloop
  endfacet
  facet normal 0 0 1
    outer loop
      vertex -1.35143 -6.35796 30
      vertex -1.55934 -7.33611 30
      vertex -0.783963 -7.45891 30
    endloop
  endfacet
  facet normal 0 0 1
    outer loop
      vertex -2.00861 -6.18187 30
      vertex -1.55934 -7.33611 30
      vertex -1.35143 -6.35796 30
    endloop
  endfacet
  facet normal 0 0 1
    outer loop
      vertex -2.00861 -6.18187 30
      vertex -2.31763 -7.13292 30
      vertex -1.55934 -7.33611 30
    endloop
  endfacet
  facet normal 0 0 1
    outer loop
      vertex -2.64379 -5.93804 30
      vertex -2.31763 -7.13292 30
      vertex -2.00861 -6.18187 30
    endloop
  endfacet
  facet normal 0 0 1
    outer loop
      vertex -2.64379 -5.93804 30
      vertex -3.05052 -6.85159 30
      vertex -2.31763 -7.13292 30
    endloop
  endfacet
  facet normal 0 0 1
    outer loop
      vertex -3.25 -5.62916 30
      vertex -3.05052 -6.85159 30
      vertex -2.64379 -5.93804 30
    endloop
  endfacet
  facet normal 0 0 1
    outer loop
      vertex -3.25 -5.62916 30
      vertex -3.75 -6.49519 30
      vertex -3.05052 -6.85159 30
    endloop
  endfacet
  facet normal 0 0 1
    outer loop
      vertex -3.8206 -5.25861 30
      vertex -3.75 -6.49519 30
      vertex -3.25 -5.62916 30
    endloop
  endfacet
  facet normal 0 0 1
    outer loop
      vertex -4.40839 -6.06763 30
      vertex -3.8206 -5.25861 30
      vertex -4.34935 -4.83044 30
    endloop
  endfacet
  facet normal 0 0 1
    outer loop
      vertex -3.8206 -5.25861 30
      vertex -4.40839 -6.06763 30
      vertex -3.75 -6.49519 30
    endloop
  endfacet
  facet normal 0 0 1
    outer loop
      vertex -5.01848 -5.57359 30
      vertex -4.34935 -4.83044 30
      vertex -4.83044 -4.34935 30
    endloop
  endfacet
  facet normal 0 0 1
    outer loop
      vertex -4.34935 -4.83044 30
      vertex -5.01848 -5.57359 30
      vertex -4.40839 -6.06763 30
    endloop
  endfacet
  facet normal 0 0 1
    outer loop
      vertex -5.57359 -5.01848 30
      vertex -4.83044 -4.34935 30
      vertex -5.25861 -3.8206 30
    endloop
  endfacet
  facet normal 0 0 1
    outer loop
      vertex -4.83044 -4.34935 30
      vertex -5.57359 -5.01848 30
      vertex -5.01848 -5.57359 30
    endloop
  endfacet
  facet normal 0 0 1
    outer loop
      vertex -6.06763 -4.40839 30
      vertex -5.25861 -3.8206 30
      vertex -5.62916 -3.25 30
    endloop
  endfacet
  facet normal 0 0 1
    outer loop
      vertex -6.49519 -3.75 30
      vertex -5.62916 -3.25 30
      vertex -5.93804 -2.64379 30
    endloop
  endfacet
  facet normal 0 0 1
    outer loop
      vertex -5.25861 -3.8206 30
      vertex -6.06763 -4.40839 30
      vertex -5.57359 -5.01848 30
    endloop
  endfacet
  facet normal 0 0 1
    outer loop
      vertex -6.85159 -3.05052 30
      vertex -5.93804 -2.64379 30
      vertex -6.18187 -2.00861 30
    endloop
  endfacet
  facet normal 0 0 1
    outer loop
      vertex -7.13292 -2.31763 30
      vertex -6.18187 -2.00861 30
      vertex -6.35796 -1.35143 30
    endloop
  endfacet
  facet normal 0 0 1
    outer loop
      vertex -7.33611 -1.55934 30
      vertex -6.35796 -1.35143 30
      vertex -6.46439 -0.679435 30
    endloop
  endfacet
  facet normal 0 0 1
    outer loop
      vertex -5.62916 -3.25 30
      vertex -6.49519 -3.75 30
      vertex -6.06763 -4.40839 30
    endloop
  endfacet
  facet normal 0 0 1
    outer loop
      vertex -7.45891 -0.783963 30
      vertex -6.46439 -0.679435 30
      vertex -6.5 0 30
    endloop
  endfacet
  facet normal 0 0 1
    outer loop
      vertex -6.35796 1.35143 30
      vertex -7.33611 1.55934 30
      vertex -6.46439 0.679435 30
    endloop
  endfacet
  facet normal 0 0 1
    outer loop
      vertex -5.93804 -2.64379 30
      vertex -6.85159 -3.05052 30
      vertex -6.49519 -3.75 30
    endloop
  endfacet
  facet normal -0 0 1
    outer loop
      vertex -7.45891 0.783963 30
      vertex -6.46439 0.679435 30
      vertex -7.33611 1.55934 30
    endloop
  endfacet
  facet normal 0 0 1
    outer loop
      vertex -6.18187 -2.00861 30
      vertex -7.13292 -2.31763 30
      vertex -6.85159 -3.05052 30
    endloop
  endfacet
  facet normal 0 0 1
    outer loop
      vertex -6.46439 0.679435 30
      vertex -7.45891 0.783963 30
      vertex -6.5 0 30
    endloop
  endfacet
  facet normal 0 0 1
    outer loop
      vertex -6.35796 -1.35143 30
      vertex -7.33611 -1.55934 30
      vertex -7.13292 -2.31763 30
    endloop
  endfacet
  facet normal 0 0 1
    outer loop
      vertex -7.5 0 30
      vertex -6.5 0 30
      vertex -7.45891 0.783963 30
    endloop
  endfacet
  facet normal 0 0 1
    outer loop
      vertex -6.46439 -0.679435 30
      vertex -7.45891 -0.783963 30
      vertex -7.33611 -1.55934 30
    endloop
  endfacet
  facet normal 0 0 1
    outer loop
      vertex -6.5 0 30
      vertex -7.5 0 30
      vertex -7.45891 -0.783963 30
    endloop
  endfacet
  facet normal -0.453991 0.891006 0
    outer loop
      vertex -3.05052 6.85159 0
      vertex -3.75 6.49519 30
      vertex -3.05052 6.85159 30
    endloop
  endfacet
  facet normal -0.453991 0.891006 0
    outer loop
      vertex -3.75 6.49519 30
      vertex -3.05052 6.85159 0
      vertex -3.75 6.49519 0
    endloop
  endfacet
  facet normal -0.544638 0.838671 0
    outer loop
      vertex -3.75 6.49519 0
      vertex -4.40839 6.06763 30
      vertex -3.75 6.49519 30
    endloop
  endfacet
  facet normal -0.544638 0.838671 0
    outer loop
      vertex -4.40839 6.06763 30
      vertex -3.75 6.49519 0
      vertex -4.40839 6.06763 0
    endloop
  endfacet
  facet normal -0.258819 0.965926 0
    outer loop
      vertex -1.55934 7.33611 0
      vertex -2.31763 7.13292 30
      vertex -1.55934 7.33611 30
    endloop
  endfacet
  facet normal -0.258819 0.965926 0
    outer loop
      vertex -2.31763 7.13292 30
      vertex -1.55934 7.33611 0
      vertex -2.31763 7.13292 0
    endloop
  endfacet
  facet normal -0.0523365 0.99863 0
    outer loop
      vertex 0 7.5 0
      vertex -0.783963 7.45891 30
      vertex 0 7.5 30
    endloop
  endfacet
  facet normal -0.0523365 0.99863 0
    outer loop
      vertex -0.783963 7.45891 30
      vertex 0 7.5 0
      vertex -0.783963 7.45891 0
    endloop
  endfacet
  facet normal 0.99863 -0.0523365 0
    outer loop
      vertex 7.45891 -0.783963 30
      vertex 7.5 0 0
      vertex 7.5 0 30
    endloop
  endfacet
  facet normal 0.99863 -0.0523365 0
    outer loop
      vertex 7.5 0 0
      vertex 7.45891 -0.783963 30
      vertex 7.45891 -0.783963 0
    endloop
  endfacet
  facet normal 0.0523365 -0.99863 0
    outer loop
      vertex 0 -7.5 0
      vertex 0.783963 -7.45891 30
      vertex 0 -7.5 30
    endloop
  endfacet
  facet normal 0.0523365 -0.99863 0
    outer loop
      vertex 0.783963 -7.45891 30
      vertex 0 -7.5 0
      vertex 0.783963 -7.45891 0
    endloop
  endfacet
  facet normal 0.258819 -0.965926 0
    outer loop
      vertex 1.55934 -7.33611 0
      vertex 2.31763 -7.13292 30
      vertex 1.55934 -7.33611 30
    endloop
  endfacet
  facet normal 0.258819 -0.965926 0
    outer loop
      vertex 2.31763 -7.13292 30
      vertex 1.55934 -7.33611 0
      vertex 2.31763 -7.13292 0
    endloop
  endfacet
  facet normal 0.62932 -0.777146 0
    outer loop
      vertex 4.40839 -6.06763 0
      vertex 5.01848 -5.57359 30
      vertex 4.40839 -6.06763 30
    endloop
  endfacet
  facet normal 0.62932 -0.777146 0
    outer loop
      vertex 5.01848 -5.57359 30
      vertex 4.40839 -6.06763 0
      vertex 5.01848 -5.57359 0
    endloop
  endfacet
  facet normal 0.453991 -0.891007 0
    outer loop
      vertex 3.05052 -6.85159 0
      vertex 3.75 -6.49519 30
      vertex 3.05052 -6.85159 30
    endloop
  endfacet
  facet normal 0.453991 -0.891007 0
    outer loop
      vertex 3.75 -6.49519 30
      vertex 3.05052 -6.85159 0
      vertex 3.75 -6.49519 0
    endloop
  endfacet
  facet normal 0.777146 -0.62932 0
    outer loop
      vertex 5.57359 -5.01848 30
      vertex 6.06763 -4.40839 0
      vertex 6.06763 -4.40839 30
    endloop
  endfacet
  facet normal 0.777146 -0.62932 0
    outer loop
      vertex 6.06763 -4.40839 0
      vertex 5.57359 -5.01848 30
      vertex 5.57359 -5.01848 0
    endloop
  endfacet
  facet normal 0.891006 -0.453991 0
    outer loop
      vertex 6.49519 -3.75 30
      vertex 6.85159 -3.05052 0
      vertex 6.85159 -3.05052 30
    endloop
  endfacet
  facet normal 0.891006 -0.453991 0
    outer loop
      vertex 6.85159 -3.05052 0
      vertex 6.49519 -3.75 30
      vertex 6.49519 -3.75 0
    endloop
  endfacet
  facet normal -0.707107 -0.707107 0
    outer loop
      vertex -5.01848 -5.57359 0
      vertex -5.57359 -5.01848 30
      vertex -5.57359 -5.01848 0
    endloop
  endfacet
  facet normal -0.707107 -0.707107 0
    outer loop
      vertex -5.57359 -5.01848 30
      vertex -5.01848 -5.57359 0
      vertex -5.01848 -5.57359 30
    endloop
  endfacet
  facet normal -0.544639 -0.838671 0
    outer loop
      vertex -4.40839 -6.06763 0
      vertex -3.75 -6.49519 30
      vertex -4.40839 -6.06763 30
    endloop
  endfacet
  facet normal -0.544639 -0.838671 -0
    outer loop
      vertex -3.75 -6.49519 30
      vertex -4.40839 -6.06763 0
      vertex -3.75 -6.49519 0
    endloop
  endfacet
  facet normal -0.358368 -0.93358 0
    outer loop
      vertex -3.05052 -6.85159 0
      vertex -2.31763 -7.13292 30
      vertex -3.05052 -6.85159 30
    endloop
  endfacet
  facet normal -0.358368 -0.93358 -0
    outer loop
      vertex -2.31763 -7.13292 30
      vertex -3.05052 -6.85159 0
      vertex -2.31763 -7.13292 0
    endloop
  endfacet
  facet normal -0.156435 -0.987688 0
    outer loop
      vertex -1.55934 -7.33611 0
      vertex -0.783963 -7.45891 30
      vertex -1.55934 -7.33611 30
    endloop
  endfacet
  facet normal -0.156435 -0.987688 -0
    outer loop
      vertex -0.783963 -7.45891 30
      vertex -1.55934 -7.33611 0
      vertex -0.783963 -7.45891 0
    endloop
  endfacet
  facet normal -0.891006 -0.453991 0
    outer loop
      vertex -6.49519 -3.75 0
      vertex -6.85159 -3.05052 30
      vertex -6.85159 -3.05052 0
    endloop
  endfacet
  facet normal -0.891006 -0.453991 0
    outer loop
      vertex -6.85159 -3.05052 30
      vertex -6.49519 -3.75 0
      vertex -6.49519 -3.75 30
    endloop
  endfacet
  facet normal -0.777146 -0.62932 0
    outer loop
      vertex -5.57359 -5.01848 0
      vertex -6.06763 -4.40839 30
      vertex -6.06763 -4.40839 0
    endloop
  endfacet
  facet normal -0.777146 -0.62932 0
    outer loop
      vertex -6.06763 -4.40839 30
      vertex -5.57359 -5.01848 0
      vertex -5.57359 -5.01848 30
    endloop
  endfacet
  facet normal -0.965926 -0.258819 0
    outer loop
      vertex -7.13292 -2.31763 0
      vertex -7.33611 -1.55934 30
      vertex -7.33611 -1.55934 0
    endloop
  endfacet
  facet normal -0.965926 -0.258819 0
    outer loop
      vertex -7.33611 -1.55934 30
      vertex -7.13292 -2.31763 0
      vertex -7.13292 -2.31763 30
    endloop
  endfacet
  facet normal -0.99863 -0.0523365 0
    outer loop
      vertex -7.45891 -0.783963 0
      vertex -7.5 0 30
      vertex -7.5 0 0
    endloop
  endfacet
  facet normal -0.99863 -0.0523365 0
    outer loop
      vertex -7.5 0 30
      vertex -7.45891 -0.783963 0
      vertex -7.45891 -0.783963 30
    endloop
  endfacet
  facet normal 0.156435 -0.987688 0
    outer loop
      vertex 0.783963 -7.45891 0
      vertex 1.55934 -7.33611 30
      vertex 0.783963 -7.45891 30
    endloop
  endfacet
  facet normal 0.156435 -0.987688 0
    outer loop
      vertex 1.55934 -7.33611 30
      vertex 0.783963 -7.45891 0
      vertex 1.55934 -7.33611 0
    endloop
  endfacet
  facet normal 0.358368 -0.93358 0
    outer loop
      vertex 2.31763 -7.13292 0
      vertex 3.05052 -6.85159 30
      vertex 2.31763 -7.13292 30
    endloop
  endfacet
  facet normal 0.358368 -0.93358 0
    outer loop
      vertex 3.05052 -6.85159 30
      vertex 2.31763 -7.13292 0
      vertex 3.05052 -6.85159 0
    endloop
  endfacet
  facet normal 0.707107 -0.707107 0
    outer loop
      vertex 5.01848 -5.57359 30
      vertex 5.57359 -5.01848 0
      vertex 5.57359 -5.01848 30
    endloop
  endfacet
  facet normal 0.707107 -0.707107 0
    outer loop
      vertex 5.57359 -5.01848 0
      vertex 5.01848 -5.57359 30
      vertex 5.01848 -5.57359 0
    endloop
  endfacet
  facet normal 0.544639 -0.838671 0
    outer loop
      vertex 3.75 -6.49519 0
      vertex 4.40839 -6.06763 30
      vertex 3.75 -6.49519 30
    endloop
  endfacet
  facet normal 0.544639 -0.838671 0
    outer loop
      vertex 4.40839 -6.06763 30
      vertex 3.75 -6.49519 0
      vertex 4.40839 -6.06763 0
    endloop
  endfacet
  facet normal 0.838671 -0.544638 0
    outer loop
      vertex 6.06763 -4.40839 30
      vertex 6.49519 -3.75 0
      vertex 6.49519 -3.75 30
    endloop
  endfacet
  facet normal 0.838671 -0.544638 0
    outer loop
      vertex 6.49519 -3.75 0
      vertex 6.06763 -4.40839 30
      vertex 6.06763 -4.40839 0
    endloop
  endfacet
  facet normal 0.987688 -0.156435 0
    outer loop
      vertex 7.33611 -1.55934 30
      vertex 7.45891 -0.783963 0
      vertex 7.45891 -0.783963 30
    endloop
  endfacet
  facet normal 0.987688 -0.156435 0
    outer loop
      vertex 7.45891 -0.783963 0
      vertex 7.33611 -1.55934 30
      vertex 7.33611 -1.55934 0
    endloop
  endfacet
  facet normal 0.965926 -0.258819 0
    outer loop
      vertex 7.13292 -2.31763 30
      vertex 7.33611 -1.55934 0
      vertex 7.33611 -1.55934 30
    endloop
  endfacet
  facet normal 0.965926 -0.258819 0
    outer loop
      vertex 7.33611 -1.55934 0
      vertex 7.13292 -2.31763 30
      vertex 7.13292 -2.31763 0
    endloop
  endfacet
  facet normal -0.62932 -0.777146 0
    outer loop
      vertex -5.01848 -5.57359 0
      vertex -4.40839 -6.06763 30
      vertex -5.01848 -5.57359 30
    endloop
  endfacet
  facet normal -0.62932 -0.777146 -0
    outer loop
      vertex -4.40839 -6.06763 30
      vertex -5.01848 -5.57359 0
      vertex -4.40839 -6.06763 0
    endloop
  endfacet
  facet normal -0.453991 -0.891007 0
    outer loop
      vertex -3.75 -6.49519 0
      vertex -3.05052 -6.85159 30
      vertex -3.75 -6.49519 30
    endloop
  endfacet
  facet normal -0.453991 -0.891007 -0
    outer loop
      vertex -3.05052 -6.85159 30
      vertex -3.75 -6.49519 0
      vertex -3.05052 -6.85159 0
    endloop
  endfacet
  facet normal -0.258819 -0.965926 0
    outer loop
      vertex -2.31763 -7.13292 0
      vertex -1.55934 -7.33611 30
      vertex -2.31763 -7.13292 30
    endloop
  endfacet
  facet normal -0.258819 -0.965926 -0
    outer loop
      vertex -1.55934 -7.33611 30
      vertex -2.31763 -7.13292 0
      vertex -1.55934 -7.33611 0
    endloop
  endfacet
  facet normal -0.838671 -0.544638 0
    outer loop
      vertex -6.06763 -4.40839 0
      vertex -6.49519 -3.75 30
      vertex -6.49519 -3.75 0
    endloop
  endfacet
  facet normal -0.838671 -0.544638 0
    outer loop
      vertex -6.49519 -3.75 30
      vertex -6.06763 -4.40839 0
      vertex -6.06763 -4.40839 30
    endloop
  endfacet
  facet normal -0.987688 -0.156435 0
    outer loop
      vertex -7.33611 -1.55934 0
      vertex -7.45891 -0.783963 30
      vertex -7.45891 -0.783963 0
    endloop
  endfacet
  facet normal -0.987688 -0.156435 0
    outer loop
      vertex -7.45891 -0.783963 30
      vertex -7.33611 -1.55934 0
      vertex -7.33611 -1.55934 30
    endloop
  endfacet
  facet normal -0.629321 -0.777146 0
    outer loop
      vertex 3.8206 5.25861 0
      vertex 4.34935 4.83044 30
      vertex 3.8206 5.25861 30
    endloop
  endfacet
  facet normal -0.629321 -0.777146 -0
    outer loop
      vertex 4.34935 4.83044 30
      vertex 3.8206 5.25861 0
      vertex 4.34935 4.83044 0
    endloop
  endfacet
  facet normal 0.258819 -0.965926 0
    outer loop
      vertex -2.00861 6.18187 0
      vertex -1.35143 6.35796 30
      vertex -2.00861 6.18187 30
    endloop
  endfacet
  facet normal 0.258819 -0.965926 0
    outer loop
      vertex -1.35143 6.35796 30
      vertex -2.00861 6.18187 0
      vertex -1.35143 6.35796 0
    endloop
  endfacet
  facet normal 0.891007 -0.45399 0
    outer loop
      vertex -5.93804 2.64379 30
      vertex -5.62916 3.25 0
      vertex -5.62916 3.25 30
    endloop
  endfacet
  facet normal 0.891007 -0.45399 0
    outer loop
      vertex -5.62916 3.25 0
      vertex -5.93804 2.64379 30
      vertex -5.93804 2.64379 0
    endloop
  endfacet
  facet normal -0.93358 0.358368 0
    outer loop
      vertex 5.93804 -2.64379 0
      vertex 6.18187 -2.00861 30
      vertex 6.18187 -2.00861 0
    endloop
  endfacet
  facet normal -0.93358 0.358368 0
    outer loop
      vertex 6.18187 -2.00861 30
      vertex 5.93804 -2.64379 0
      vertex 5.93804 -2.64379 30
    endloop
  endfacet
  facet normal -0.891007 -0.45399 0
    outer loop
      vertex 5.93804 2.64379 0
      vertex 5.62916 3.25 30
      vertex 5.62916 3.25 0
    endloop
  endfacet
  facet normal -0.891007 -0.45399 0
    outer loop
      vertex 5.62916 3.25 30
      vertex 5.93804 2.64379 0
      vertex 5.93804 2.64379 30
    endloop
  endfacet
  facet normal -0.83867 -0.544639 0
    outer loop
      vertex 5.62916 3.25 0
      vertex 5.25861 3.8206 30
      vertex 5.25861 3.8206 0
    endloop
  endfacet
  facet normal -0.83867 -0.544639 0
    outer loop
      vertex 5.25861 3.8206 30
      vertex 5.62916 3.25 0
      vertex 5.62916 3.25 30
    endloop
  endfacet
  facet normal -0.358368 -0.93358 0
    outer loop
      vertex 2.00861 6.18187 0
      vertex 2.64379 5.93804 30
      vertex 2.00861 6.18187 30
    endloop
  endfacet
  facet normal -0.358368 -0.93358 -0
    outer loop
      vertex 2.64379 5.93804 30
      vertex 2.00861 6.18187 0
      vertex 2.64379 5.93804 0
    endloop
  endfacet
  facet normal 0.707107 -0.707107 0
    outer loop
      vertex -4.83044 4.34935 30
      vertex -4.34935 4.83044 0
      vertex -4.34935 4.83044 30
    endloop
  endfacet
  facet normal 0.707107 -0.707107 0
    outer loop
      vertex -4.34935 4.83044 0
      vertex -4.83044 4.34935 30
      vertex -4.83044 4.34935 0
    endloop
  endfacet
  facet normal 0.156435 -0.987688 0
    outer loop
      vertex -1.35143 6.35796 0
      vertex -0.679435 6.46439 30
      vertex -1.35143 6.35796 30
    endloop
  endfacet
  facet normal 0.156435 -0.987688 0
    outer loop
      vertex -0.679435 6.46439 30
      vertex -1.35143 6.35796 0
      vertex -0.679435 6.46439 0
    endloop
  endfacet
  facet normal -0.998629 0.0523369 0
    outer loop
      vertex 6.46439 -0.679435 0
      vertex 6.5 0 30
      vertex 6.5 0 0
    endloop
  endfacet
  facet normal -0.998629 0.0523369 0
    outer loop
      vertex 6.5 0 30
      vertex 6.46439 -0.679435 0
      vertex 6.46439 -0.679435 30
    endloop
  endfacet
  facet normal -0.777146 0.629321 0
    outer loop
      vertex 4.83044 -4.34935 0
      vertex 5.25861 -3.8206 30
      vertex 5.25861 -3.8206 0
    endloop
  endfacet
  facet normal -0.777146 0.629321 0
    outer loop
      vertex 5.25861 -3.8206 30
      vertex 4.83044 -4.34935 0
      vertex 4.83044 -4.34935 30
    endloop
  endfacet
  facet normal 0.156435 0.987688 -0
    outer loop
      vertex -0.679435 -6.46439 0
      vertex -1.35143 -6.35796 30
      vertex -0.679435 -6.46439 30
    endloop
  endfacet
  facet normal 0.156435 0.987688 0
    outer loop
      vertex -1.35143 -6.35796 30
      vertex -0.679435 -6.46439 0
      vertex -1.35143 -6.35796 0
    endloop
  endfacet
  facet normal 0.707107 0.707107 0
    outer loop
      vertex -4.34935 -4.83044 30
      vertex -4.83044 -4.34935 0
      vertex -4.83044 -4.34935 30
    endloop
  endfacet
  facet normal 0.707107 0.707107 0
    outer loop
      vertex -4.83044 -4.34935 0
      vertex -4.34935 -4.83044 30
      vertex -4.34935 -4.83044 0
    endloop
  endfacet
  facet normal 0.987688 0.156435 0
    outer loop
      vertex -6.35796 -1.35143 30
      vertex -6.46439 -0.679435 0
      vertex -6.46439 -0.679435 30
    endloop
  endfacet
  facet normal 0.987688 0.156435 0
    outer loop
      vertex -6.46439 -0.679435 0
      vertex -6.35796 -1.35143 30
      vertex -6.35796 -1.35143 0
    endloop
  endfacet
  facet normal -0.987688 -0.156435 0
    outer loop
      vertex 6.46439 0.679435 0
      vertex 6.35796 1.35143 30
      vertex 6.35796 1.35143 0
    endloop
  endfacet
  facet normal -0.987688 -0.156435 0
    outer loop
      vertex 6.35796 1.35143 30
      vertex 6.46439 0.679435 0
      vertex 6.46439 0.679435 30
    endloop
  endfacet
  facet normal -0.965926 -0.258819 0
    outer loop
      vertex 6.35796 1.35143 0
      vertex 6.18187 2.00861 30
      vertex 6.18187 2.00861 0
    endloop
  endfacet
  facet normal -0.965926 -0.258819 0
    outer loop
      vertex 6.18187 2.00861 30
      vertex 6.35796 1.35143 0
      vertex 6.35796 1.35143 30
    endloop
  endfacet
  facet normal -0.93358 -0.358368 0
    outer loop
      vertex 6.18187 2.00861 0
      vertex 5.93804 2.64379 30
      vertex 5.93804 2.64379 0
    endloop
  endfacet
  facet normal -0.93358 -0.358368 0
    outer loop
      vertex 5.93804 2.64379 30
      vertex 6.18187 2.00861 0
      vertex 6.18187 2.00861 30
    endloop
  endfacet
  facet normal -0.777146 -0.629321 0
    outer loop
      vertex 5.25861 3.8206 0
      vertex 4.83044 4.34935 30
      vertex 4.83044 4.34935 0
    endloop
  endfacet
  facet normal -0.777146 -0.629321 0
    outer loop
      vertex 4.83044 4.34935 30
      vertex 5.25861 3.8206 0
      vertex 5.25861 3.8206 30
    endloop
  endfacet
  facet normal -0.707107 -0.707107 0
    outer loop
      vertex 4.83044 4.34935 0
      vertex 4.34935 4.83044 30
      vertex 4.34935 4.83044 0
    endloop
  endfacet
  facet normal -0.707107 -0.707107 0
    outer loop
      vertex 4.34935 4.83044 30
      vertex 4.83044 4.34935 0
      vertex 4.83044 4.34935 30
    endloop
  endfacet
  facet normal -0.54464 -0.83867 0
    outer loop
      vertex 3.25 5.62916 0
      vertex 3.8206 5.25861 30
      vertex 3.25 5.62916 30
    endloop
  endfacet
  facet normal -0.54464 -0.83867 -0
    outer loop
      vertex 3.8206 5.25861 30
      vertex 3.25 5.62916 0
      vertex 3.8206 5.25861 0
    endloop
  endfacet
  facet normal -0.0523369 -0.998629 0
    outer loop
      vertex 0 6.5 0
      vertex 0.679435 6.46439 30
      vertex 0 6.5 30
    endloop
  endfacet
  facet normal -0.0523369 -0.998629 -0
    outer loop
      vertex 0.679435 6.46439 30
      vertex 0 6.5 0
      vertex 0.679435 6.46439 0
    endloop
  endfacet
  facet normal -0.453989 -0.891007 0
    outer loop
      vertex 2.64379 5.93804 0
      vertex 3.25 5.62916 30
      vertex 2.64379 5.93804 30
    endloop
  endfacet
  facet normal -0.453989 -0.891007 -0
    outer loop
      vertex 3.25 5.62916 30
      vertex 2.64379 5.93804 0
      vertex 3.25 5.62916 0
    endloop
  endfacet
  facet normal -0.258819 -0.965926 0
    outer loop
      vertex 1.35143 6.35796 0
      vertex 2.00861 6.18187 30
      vertex 1.35143 6.35796 30
    endloop
  endfacet
  facet normal -0.258819 -0.965926 -0
    outer loop
      vertex 2.00861 6.18187 30
      vertex 1.35143 6.35796 0
      vertex 2.00861 6.18187 0
    endloop
  endfacet
  facet normal 0.998629 -0.0523369 0
    outer loop
      vertex -6.5 0 30
      vertex -6.46439 0.679435 0
      vertex -6.46439 0.679435 30
    endloop
  endfacet
  facet normal 0.998629 -0.0523369 0
    outer loop
      vertex -6.46439 0.679435 0
      vertex -6.5 0 30
      vertex -6.5 0 0
    endloop
  endfacet
  facet normal 0.93358 -0.358368 0
    outer loop
      vertex -6.18187 2.00861 30
      vertex -5.93804 2.64379 0
      vertex -5.93804 2.64379 30
    endloop
  endfacet
  facet normal 0.93358 -0.358368 0
    outer loop
      vertex -5.93804 2.64379 0
      vertex -6.18187 2.00861 30
      vertex -6.18187 2.00861 0
    endloop
  endfacet
  facet normal 0.965926 -0.258819 0
    outer loop
      vertex -6.35796 1.35143 30
      vertex -6.18187 2.00861 0
      vertex -6.18187 2.00861 30
    endloop
  endfacet
  facet normal 0.965926 -0.258819 0
    outer loop
      vertex -6.18187 2.00861 0
      vertex -6.35796 1.35143 30
      vertex -6.35796 1.35143 0
    endloop
  endfacet
  facet normal 0.83867 -0.544639 0
    outer loop
      vertex -5.62916 3.25 30
      vertex -5.25861 3.8206 0
      vertex -5.25861 3.8206 30
    endloop
  endfacet
  facet normal 0.83867 -0.544639 0
    outer loop
      vertex -5.25861 3.8206 0
      vertex -5.62916 3.25 30
      vertex -5.62916 3.25 0
    endloop
  endfacet
  facet normal 0.777146 -0.629321 0
    outer loop
      vertex -5.25861 3.8206 30
      vertex -4.83044 4.34935 0
      vertex -4.83044 4.34935 30
    endloop
  endfacet
  facet normal 0.777146 -0.629321 0
    outer loop
      vertex -4.83044 4.34935 0
      vertex -5.25861 3.8206 30
      vertex -5.25861 3.8206 0
    endloop
  endfacet
  facet normal 0.0523369 -0.998629 0
    outer loop
      vertex -0.679435 6.46439 0
      vertex 0 6.5 30
      vertex -0.679435 6.46439 30
    endloop
  endfacet
  facet normal 0.0523369 -0.998629 0
    outer loop
      vertex 0 6.5 30
      vertex -0.679435 6.46439 0
      vertex 0 6.5 0
    endloop
  endfacet
  facet normal 0.45399 -0.891007 0
    outer loop
      vertex -3.25 5.62916 0
      vertex -2.64379 5.93804 30
      vertex -3.25 5.62916 30
    endloop
  endfacet
  facet normal 0.45399 -0.891007 0
    outer loop
      vertex -2.64379 5.93804 30
      vertex -3.25 5.62916 0
      vertex -2.64379 5.93804 0
    endloop
  endfacet
  facet normal 0.544639 -0.83867 0
    outer loop
      vertex -3.8206 5.25861 0
      vertex -3.25 5.62916 30
      vertex -3.8206 5.25861 30
    endloop
  endfacet
  facet normal 0.544639 -0.83867 0
    outer loop
      vertex -3.25 5.62916 30
      vertex -3.8206 5.25861 0
      vertex -3.25 5.62916 0
    endloop
  endfacet
  facet normal 0.358368 -0.93358 0
    outer loop
      vertex -2.64379 5.93804 0
      vertex -2.00861 6.18187 30
      vertex -2.64379 5.93804 30
    endloop
  endfacet
  facet normal 0.358368 -0.93358 0
    outer loop
      vertex -2.00861 6.18187 30
      vertex -2.64379 5.93804 0
      vertex -2.00861 6.18187 0
    endloop
  endfacet
  facet normal 0.629321 -0.777146 0
    outer loop
      vertex -4.34935 4.83044 0
      vertex -3.8206 5.25861 30
      vertex -4.34935 4.83044 30
    endloop
  endfacet
  facet normal 0.629321 -0.777146 0
    outer loop
      vertex -3.8206 5.25861 30
      vertex -4.34935 4.83044 0
      vertex -3.8206 5.25861 0
    endloop
  endfacet
  facet normal -0.998629 -0.0523369 0
    outer loop
      vertex 6.5 0 0
      vertex 6.46439 0.679435 30
      vertex 6.46439 0.679435 0
    endloop
  endfacet
  facet normal -0.998629 -0.0523369 0
    outer loop
      vertex 6.46439 0.679435 30
      vertex 6.5 0 0
      vertex 6.5 0 30
    endloop
  endfacet
  facet normal -0.0523369 0.998629 0
    outer loop
      vertex 0.679435 -6.46439 0
      vertex 0 -6.5 30
      vertex 0.679435 -6.46439 30
    endloop
  endfacet
  facet normal -0.0523369 0.998629 0
    outer loop
      vertex 0 -6.5 30
      vertex 0.679435 -6.46439 0
      vertex 0 -6.5 0
    endloop
  endfacet
  facet normal -0.156435 0.987688 0
    outer loop
      vertex 1.35143 -6.35796 0
      vertex 0.679435 -6.46439 30
      vertex 1.35143 -6.35796 30
    endloop
  endfacet
  facet normal -0.156435 0.987688 0
    outer loop
      vertex 0.679435 -6.46439 30
      vertex 1.35143 -6.35796 0
      vertex 0.679435 -6.46439 0
    endloop
  endfacet
  facet normal -0.258819 0.965926 0
    outer loop
      vertex 2.00861 -6.18187 0
      vertex 1.35143 -6.35796 30
      vertex 2.00861 -6.18187 30
    endloop
  endfacet
  facet normal -0.258819 0.965926 0
    outer loop
      vertex 1.35143 -6.35796 30
      vertex 2.00861 -6.18187 0
      vertex 1.35143 -6.35796 0
    endloop
  endfacet
  facet normal -0.629321 0.777146 0
    outer loop
      vertex 4.34935 -4.83044 0
      vertex 3.8206 -5.25861 30
      vertex 4.34935 -4.83044 30
    endloop
  endfacet
  facet normal -0.629321 0.777146 0
    outer loop
      vertex 3.8206 -5.25861 30
      vertex 4.34935 -4.83044 0
      vertex 3.8206 -5.25861 0
    endloop
  endfacet
  facet normal -0.453989 0.891007 0
    outer loop
      vertex 3.25 -5.62916 0
      vertex 2.64379 -5.93804 30
      vertex 3.25 -5.62916 30
    endloop
  endfacet
  facet normal -0.453989 0.891007 0
    outer loop
      vertex 2.64379 -5.93804 30
      vertex 3.25 -5.62916 0
      vertex 2.64379 -5.93804 0
    endloop
  endfacet
  facet normal -0.891007 0.45399 0
    outer loop
      vertex 5.62916 -3.25 0
      vertex 5.93804 -2.64379 30
      vertex 5.93804 -2.64379 0
    endloop
  endfacet
  facet normal -0.891007 0.45399 0
    outer loop
      vertex 5.93804 -2.64379 30
      vertex 5.62916 -3.25 0
      vertex 5.62916 -3.25 30
    endloop
  endfacet
  facet normal 0.0523369 0.998629 -0
    outer loop
      vertex 0 -6.5 0
      vertex -0.679435 -6.46439 30
      vertex 0 -6.5 30
    endloop
  endfacet
  facet normal 0.0523369 0.998629 0
    outer loop
      vertex -0.679435 -6.46439 30
      vertex 0 -6.5 0
      vertex -0.679435 -6.46439 0
    endloop
  endfacet
  facet normal 0.358368 0.93358 -0
    outer loop
      vertex -2.00861 -6.18187 0
      vertex -2.64379 -5.93804 30
      vertex -2.00861 -6.18187 30
    endloop
  endfacet
  facet normal 0.358368 0.93358 0
    outer loop
      vertex -2.64379 -5.93804 30
      vertex -2.00861 -6.18187 0
      vertex -2.64379 -5.93804 0
    endloop
  endfacet
  facet normal 0.54464 0.83867 -0
    outer loop
      vertex -3.25 -5.62916 0
      vertex -3.8206 -5.25861 30
      vertex -3.25 -5.62916 30
    endloop
  endfacet
  facet normal 0.54464 0.83867 0
    outer loop
      vertex -3.8206 -5.25861 30
      vertex -3.25 -5.62916 0
      vertex -3.8206 -5.25861 0
    endloop
  endfacet
  facet normal 0.965926 0.258819 0
    outer loop
      vertex -6.18187 -2.00861 30
      vertex -6.35796 -1.35143 0
      vertex -6.35796 -1.35143 30
    endloop
  endfacet
  facet normal 0.965926 0.258819 0
    outer loop
      vertex -6.35796 -1.35143 0
      vertex -6.18187 -2.00861 30
      vertex -6.18187 -2.00861 0
    endloop
  endfacet
  facet normal 0.998629 0.0523369 0
    outer loop
      vertex -6.46439 -0.679435 30
      vertex -6.5 0 0
      vertex -6.5 0 30
    endloop
  endfacet
  facet normal 0.998629 0.0523369 0
    outer loop
      vertex -6.5 0 0
      vertex -6.46439 -0.679435 30
      vertex -6.46439 -0.679435 0
    endloop
  endfacet
  facet normal 0.83867 0.544639 0
    outer loop
      vertex -5.25861 -3.8206 30
      vertex -5.62916 -3.25 0
      vertex -5.62916 -3.25 30
    endloop
  endfacet
  facet normal 0.83867 0.544639 0
    outer loop
      vertex -5.62916 -3.25 0
      vertex -5.25861 -3.8206 30
      vertex -5.25861 -3.8206 0
    endloop
  endfacet
  facet normal 0.93358 0.358368 0
    outer loop
      vertex -5.93804 -2.64379 30
      vertex -6.18187 -2.00861 0
      vertex -6.18187 -2.00861 30
    endloop
  endfacet
  facet normal 0.93358 0.358368 0
    outer loop
      vertex -6.18187 -2.00861 0
      vertex -5.93804 -2.64379 30
      vertex -5.93804 -2.64379 0
    endloop
  endfacet
  facet normal 0.777146 0.629321 0
    outer loop
      vertex -4.83044 -4.34935 30
      vertex -5.25861 -3.8206 0
      vertex -5.25861 -3.8206 30
    endloop
  endfacet
  facet normal 0.777146 0.629321 0
    outer loop
      vertex -5.25861 -3.8206 0
      vertex -4.83044 -4.34935 30
      vertex -4.83044 -4.34935 0
    endloop
  endfacet
  facet normal -0.156435 -0.987688 0
    outer loop
      vertex 0.679435 6.46439 0
      vertex 1.35143 6.35796 30
      vertex 0.679435 6.46439 30
    endloop
  endfacet
  facet normal -0.156435 -0.987688 -0
    outer loop
      vertex 1.35143 6.35796 30
      vertex 0.679435 6.46439 0
      vertex 1.35143 6.35796 0
    endloop
  endfacet
  facet normal 0.987688 -0.156435 0
    outer loop
      vertex -6.46439 0.679435 30
      vertex -6.35796 1.35143 0
      vertex -6.35796 1.35143 30
    endloop
  endfacet
  facet normal 0.987688 -0.156435 0
    outer loop
      vertex -6.35796 1.35143 0
      vertex -6.46439 0.679435 30
      vertex -6.46439 0.679435 0
    endloop
  endfacet
  facet normal -0.987688 0.156435 0
    outer loop
      vertex 6.35796 -1.35143 0
      vertex 6.46439 -0.679435 30
      vertex 6.46439 -0.679435 0
    endloop
  endfacet
  facet normal -0.987688 0.156435 0
    outer loop
      vertex 6.46439 -0.679435 30
      vertex 6.35796 -1.35143 0
      vertex 6.35796 -1.35143 30
    endloop
  endfacet
  facet normal -0.965926 0.258819 0
    outer loop
      vertex 6.18187 -2.00861 0
      vertex 6.35796 -1.35143 30
      vertex 6.35796 -1.35143 0
    endloop
  endfacet
  facet normal -0.965926 0.258819 0
    outer loop
      vertex 6.35796 -1.35143 30
      vertex 6.18187 -2.00861 0
      vertex 6.18187 -2.00861 30
    endloop
  endfacet
  facet normal -0.358368 0.93358 0
    outer loop
      vertex 2.64379 -5.93804 0
      vertex 2.00861 -6.18187 30
      vertex 2.64379 -5.93804 30
    endloop
  endfacet
  facet normal -0.358368 0.93358 0
    outer loop
      vertex 2.00861 -6.18187 30
      vertex 2.64379 -5.93804 0
      vertex 2.00861 -6.18187 0
    endloop
  endfacet
  facet normal -0.707107 0.707107 0
    outer loop
      vertex 4.34935 -4.83044 0
      vertex 4.83044 -4.34935 30
      vertex 4.83044 -4.34935 0
    endloop
  endfacet
  facet normal -0.707107 0.707107 0
    outer loop
      vertex 4.83044 -4.34935 30
      vertex 4.34935 -4.83044 0
      vertex 4.34935 -4.83044 30
    endloop
  endfacet
  facet normal -0.54464 0.83867 0
    outer loop
      vertex 3.8206 -5.25861 0
      vertex 3.25 -5.62916 30
      vertex 3.8206 -5.25861 30
    endloop
  endfacet
  facet normal -0.54464 0.83867 0
    outer loop
      vertex 3.25 -5.62916 30
      vertex 3.8206 -5.25861 0
      vertex 3.25 -5.62916 0
    endloop
  endfacet
  facet normal -0.83867 0.544639 0
    outer loop
      vertex 5.25861 -3.8206 0
      vertex 5.62916 -3.25 30
      vertex 5.62916 -3.25 0
    endloop
  endfacet
  facet normal -0.83867 0.544639 0
    outer loop
      vertex 5.62916 -3.25 30
      vertex 5.25861 -3.8206 0
      vertex 5.25861 -3.8206 30
    endloop
  endfacet
  facet normal 0.258819 0.965926 -0
    outer loop
      vertex -1.35143 -6.35796 0
      vertex -2.00861 -6.18187 30
      vertex -1.35143 -6.35796 30
    endloop
  endfacet
  facet normal 0.258819 0.965926 0
    outer loop
      vertex -2.00861 -6.18187 30
      vertex -1.35143 -6.35796 0
      vertex -2.00861 -6.18187 0
    endloop
  endfacet
  facet normal 0.453989 0.891007 -0
    outer loop
      vertex -2.64379 -5.93804 0
      vertex -3.25 -5.62916 30
      vertex -2.64379 -5.93804 30
    endloop
  endfacet
  facet normal 0.453989 0.891007 0
    outer loop
      vertex -3.25 -5.62916 30
      vertex -2.64379 -5.93804 0
      vertex -3.25 -5.62916 0
    endloop
  endfacet
  facet normal 0.629321 0.777146 -0
    outer loop
      vertex -3.8206 -5.25861 0
      vertex -4.34935 -4.83044 30
      vertex -3.8206 -5.25861 30
    endloop
  endfacet
  facet normal 0.629321 0.777146 0
    outer loop
      vertex -4.34935 -4.83044 30
      vertex -3.8206 -5.25861 0
      vertex -4.34935 -4.83044 0
    endloop
  endfacet
  facet normal 0.891007 0.45399 0
    outer loop
      vertex -5.62916 -3.25 30
      vertex -5.93804 -2.64379 0
      vertex -5.93804 -2.64379 30
    endloop
  endfacet
  facet normal 0.891007 0.45399 0
    outer loop
      vertex -5.93804 -2.64379 0
      vertex -5.62916 -3.25 30
      vertex -5.62916 -3.25 0
    endloop
  endfacet
endsolid OpenSCAD_Model
